<svg xmlns:svg="http://www.w3.org/2000/svg" xmlns="http://www.w3.org/2000/svg" version="1.1" id="svg3355" height="2209.13" width="812.25"><defs id="defs3368"/><title id="title3357">Shoe Print</title><metadata id="metadata7">image/svg+xmlShoe PrintTavin12. Sep. 2010</metadata><g transform="translate(812.25) scale(-1,1)"><g transform="translate(-79.8018,14.316878)" id="g3360"><title id="title3362">Layer 1</title><g transform="matrix(0.28632388,0.95813288,-0.95813288,0.28632388,1279.1989,-35.836021)" id="layer1"><path id="path2890-7" d="m1292.35 1299.34c49.48-136.53 80.97-257.07 137.25-430.24 889.28 66.51 536.14 861.53-137.25 430.24zm-161.4-39.11c-123.54 2.51-242.63-3.5-360 47.58-125.84 58.01-236.29 67.42-419.24 35.71C18.94 1285.84-188.66 1163.17-234.49 997.14-289.36 642.94 75.63 598.5 342.65 589.5 492.06 569.72 1131.81 689.14 1240.39 834.57c-38.16 143.13-75.59 283.67-109.45 425.66l0 0z" style="fill:#000;stroke:#000"/></g></g></g></svg>